<svg width="28" height="30" viewBox="0 0 28 30" fill="none" xmlns="http://www.w3.org/2000/svg">
<path d="M8.68461 2.45101C10.59 0.289723 13.5626 -0.533042 16.28 0.348716C18.9975 1.23047 20.9549 3.65292 21.2815 6.53847L21.5002 6.54291C23.6261 6.6293 26.0565 7.98885 26.7449 11.8126L27.8582 20.6204C28.2855 23.6794 27.7288 26.0396 26.4341 27.6086C25.1395 29.1777 23.0163 29.9424 19.9609 29.9424H8.16676C5.75322 30.2507 3.34841 29.308 1.76069 27.4311C0.172974 25.5543 -0.386834 22.9927 0.269447 20.6072L0.301629 20.454C0.454772 19.9082 0.984197 19.5481 1.55114 19.6315C2.16963 19.7225 2.59855 20.3069 2.50918 20.9368C2.10457 22.6629 2.45913 24.4829 3.48016 25.9209C4.73463 27.1319 6.42925 27.7534 8.15381 27.635H19.9609C22.3042 27.635 23.9225 27.1339 24.7641 26.0923C25.6056 25.0507 25.9422 23.3102 25.6056 20.9368L24.5051 12.2213C24.1167 10.1117 22.9127 8.79316 21.2815 8.79316H6.83328C5.27971 8.79316 4.07569 10.1117 3.59667 12.3136L3.28596 14.2519C3.14326 14.8441 2.57479 15.2228 1.98485 15.1186C1.3949 15.0144 0.984812 14.4629 1.04623 13.8563L1.36989 11.8785C2.22435 7.857 4.7489 6.53847 6.83328 6.53847H18.977C18.7992 5.37001 18.2324 4.29931 17.3717 3.50584C15.3263 1.64284 12.1857 1.81988 10.3547 3.9014V4.03325L10.2278 4.15268C9.95882 4.36968 9.60485 4.4538 9.26446 4.37421C8.86734 4.28135 8.54902 3.97978 8.42942 3.58309C8.30981 3.1864 8.40709 2.75485 8.68461 2.45101ZM18.498 12.5114C18.6669 12.5512 18.8286 12.618 18.977 12.7092C19.1094 12.8156 19.227 12.9398 19.3266 13.0784C19.3827 13.1423 19.4227 13.2193 19.4431 13.3025C19.4825 13.3811 19.5088 13.4657 19.5208 13.5531C19.5341 13.6404 19.5341 13.7294 19.5208 13.8168C19.5251 13.9897 19.4897 14.1613 19.4172 14.3178C19.3523 14.4878 19.2452 14.6377 19.1065 14.7529C18.8674 15.0014 18.5417 15.1435 18.2002 15.1485C18.0274 15.1415 17.8569 15.1059 17.6953 15.043C17.4254 14.8796 17.2229 14.6219 17.1257 14.3178C17.0572 14.1604 17.0261 13.9887 17.035 13.8168C17.0219 13.7294 17.0219 13.6405 17.035 13.5531V13.3025L17.1645 13.0784C17.2014 13.0016 17.2544 12.9341 17.3199 12.8806L17.5141 12.7092C17.5862 12.6593 17.6646 12.6194 17.7471 12.5905C17.825 12.5524 17.9078 12.5257 17.9931 12.5114C18.1592 12.472 18.3319 12.472 18.498 12.5114ZM10.2252 12.5246C10.311 12.5368 10.3941 12.5636 10.4712 12.6037C10.5508 12.63 10.6252 12.6702 10.6913 12.7224C10.7689 12.7679 10.8388 12.8258 10.8984 12.8938C10.9639 12.9473 11.017 13.0148 11.0538 13.0916C11.1041 13.1618 11.1475 13.2368 11.1833 13.3157L11.2609 13.5662C11.268 13.654 11.268 13.7422 11.2609 13.83C11.2609 14.5582 10.6813 15.1485 9.96631 15.1485C9.63385 15.1367 9.31861 14.9951 9.08595 14.7529C8.96344 14.6287 8.86659 14.4808 8.80113 14.3178C8.73923 14.1584 8.70844 13.9882 8.7105 13.8168C8.69715 13.7294 8.69715 13.6404 8.7105 13.5531C8.72251 13.4657 8.74876 13.3811 8.78818 13.3025C8.81404 13.2215 8.85346 13.1457 8.9047 13.0784C8.94155 13.0016 8.9946 12.9341 9.06006 12.8806C9.11674 12.8184 9.18219 12.765 9.25425 12.7224C9.32035 12.6702 9.39481 12.63 9.47434 12.6037C9.55143 12.5636 9.63457 12.5368 9.72032 12.5246C9.88641 12.4852 10.0592 12.4852 10.2252 12.5246Z" fill="#FFEAD7"/>
</svg>
