<svg width="27" height="27" viewBox="0 0 27 27" fill="none" xmlns="http://www.w3.org/2000/svg">
<path fill-rule="evenodd" clip-rule="evenodd" d="M12.8416 0.0129608C12.7547 0.0254143 12.4974 0.0608752 12.2697 0.0917452C10.972 0.267783 9.41998 0.999482 8.36442 1.93292C7.03122 3.11194 6.09059 4.80969 5.804 6.55429C5.70071 7.18309 5.71414 8.61092 5.82881 9.18848C6.207 11.0929 7.27925 12.8556 8.72775 13.9542L9.08824 14.2276L8.93702 14.2851C8.30326 14.5263 8.02489 14.6478 7.48663 14.9179C5.14643 16.0923 3.24232 17.8688 1.89005 20.1394C0.782347 21.9993 0.165181 24.072 0.0357121 26.3667L0 27H1.06135H2.12271V26.7417C2.12271 24.9538 2.86581 22.4816 3.85985 20.9629C5.39526 18.6169 7.44812 17.0076 9.95181 16.1872C12.3302 15.4079 14.6698 15.4079 17.0482 16.1872C19.5519 17.0076 21.6047 18.6169 23.1401 20.9629C24.1342 22.4816 24.8773 24.9538 24.8773 26.7417V27H25.9386H27L26.9643 26.3667C26.8348 24.072 26.2177 21.9993 25.1099 20.1394C23.7577 17.8688 21.8536 16.0923 19.5134 14.9179C18.9751 14.6478 18.6967 14.5263 18.063 14.2851L17.9118 14.2276L18.2722 13.9542C19.7207 12.8556 20.793 11.0929 21.1712 9.18848C21.2859 8.61092 21.2993 7.18309 21.196 6.55429C20.9672 5.16181 20.2702 3.69161 19.3389 2.6377C18.1882 1.33541 16.5638 0.415485 14.8735 0.108842C14.4669 0.0350711 13.128 -0.0280937 12.8416 0.0129608ZM14.391 2.17391C17.4896 2.67739 19.6071 5.60017 19.1078 8.68464C18.6052 11.7889 15.6878 13.9103 12.609 13.4101C9.51036 12.9066 7.39292 9.98382 7.89221 6.89935C8.39465 3.79551 11.3127 1.67377 14.391 2.17391Z" fill="#DABB9E"/>
</svg>
